<?xml version="1.0" encoding="UTF-8"?>
<svg xmlns="http://www.w3.org/2000/svg" width="700.140625" height="186.45703125" id="exportedSVG" version="1.1" pencil:version="1.2.2" xmlns:pencil="http://www.evolus.vn/Namespace/Pencil" sodipodi:docname="" xmlns:sodipodi="http://sodipodi.sourceforge.net/DTD/sodipodi-0.dtd"><g inkscape:label="Untitled Page" xmlns:inkscape="http://www.inkscape.org/namespaces/inkscape" inkscape:groupmode="layer" id="layer_untitled_page"><g><rect x="0" y="0" width="700.140625" height="700.140625" fill="none"/><g pencil:type="Shape" pencil:def="Evolus.Common:SVGImage" id="fc81702bc9b6430296d01e862a8169ae" transform="matrix(1,0,0,1,-42.47265625,-0.10546875)"><pencil:metadata><pencil:property name="box">792,184</pencil:property><pencil:property name="originalDim">418,97</pencil:property><pencil:property name="svgXML">&lt;g xmlns="http://www.w3.org/2000/svg"&gt;

 &lt;g&gt;
  &lt;title&gt;Layer 1&lt;/title&gt;
  &lt;g transform="translate(-1, 3) matrix(0.876438, 0, 0, 0.876438, 24.1235, 58.449)" id="imagebot_12"&gt;
   &lt;path id="imagebot_6" transform="rotate(-85.1567, 47.503, -22.3336) matrix(0.108501, 0, 0, 0.108501, 33.8168, -36.0197)" d="M-280.008,532.286 L-280.008,75.3707 L-280.008,75.3707 C-280.008,-120.899 -120.899,-280.008 75.3708,-280.008 L75.3708,-280.008 L75.3708,-280.008 C169.623,-280.008 260.015,-242.566 326.661,-175.92 C393.308,-109.273 430.749,-18.8815 430.749,75.3708 L430.749,126.139 L532.286,126.139 L329.212,329.213 L126.139,126.139 L227.676,126.139 L227.676,75.3708 C227.676,-8.74498 159.486,-76.9343 75.3708,-76.9343 L75.3708,-76.9343 L75.3708,-76.9343 C-8.74504,-76.9343 -76.9343,-8.74498 -76.9343,75.3708 L-76.9343,532.286 L-280.008,532.286 z" stroke-linecap="round" stroke-linejoin="round" stroke-width="3" stroke="#000000" fill="#000000"/&gt;
   &lt;g transform="translate(0, -58)" id="imagebot_9"&gt;
    &lt;path id="imagebot_5" transform="rotate(85.1567, 371.503, 33.6666) matrix(-0.108501, 0, 0, 0.108501, 385.189, 19.9804)" d="M-280.008,532.286 L-280.008,75.3707 L-280.008,75.3707 C-280.008,-120.899 -120.899,-280.008 75.3708,-280.008 L75.3708,-280.008 L75.3708,-280.008 C169.623,-280.008 260.015,-242.566 326.661,-175.92 C393.308,-109.273 430.749,-18.8815 430.749,75.3708 L430.749,126.139 L532.286,126.139 L329.212,329.213 L126.139,126.139 L227.676,126.139 L227.676,75.3708 C227.676,-8.74498 159.486,-76.9343 75.3708,-76.9343 L75.3708,-76.9343 L75.3708,-76.9343 C-8.74504,-76.9343 -76.9343,-8.74498 -76.9343,75.3708 L-76.9343,532.286 L-280.008,532.286 z" stroke-linecap="round" stroke-linejoin="round" stroke-width="3" stroke="#000000" fill="#000000"/&gt;
    &lt;g id="imagebot_8"&gt;
     &lt;g transform="translate(9, 13) matrix(1, 0, 0, 1, -30, -66.5469)" id="imagebot_1"&gt;
      &lt;path id="imagebot_2" transform="matrix(0.1, 0, 0, -0.1, 0, 203)" d="M2690,1480C2569,1461 2460,1400 2366,1299L2311,1239L2257,1293C2186,1366 2092,1426 2005,1453C1906,1484 1754,1484 1650,1451C1550,1421 1420,1351 1336,1284C1109,1102 888,1003 734,1013C691,1016 647,1026 623,1039C577,1062 514,1122 505,1151C495,1183 508,1235 531,1256C559,1281 632,1279 695,1251C753,1225 772,1225 793,1248C823,1281 814,1310 757,1366C604,1513 417,1480 266,1279C221,1219 220,1217 220,1140C220,1046 246,955 292,885C410,707 649,575 929,533C1090,509 1457,509 1587,533C1783,570 1949,632 2075,715C2135,755 2252,869 2278,912C2287,927 2300,940 2307,940C2313,940 2339,913 2364,881C2559,628 2942,496 3425,513C3823,528 4050,604 4238,784C4344,886 4400,1008 4400,1141C4400,1196 4395,1213 4371,1251C4331,1314 4229,1407 4173,1433C4069,1480 3947,1453 3851,1362C3817,1330 3810,1316 3810,1286C3810,1230 3841,1220 3920,1250C3995,1278 4063,1282 4085,1259C4110,1235 4119,1178 4105,1144C4085,1096 4017,1043 3953,1024C3853,995 3717,1021 3564,1098C3498,1131 3327,1245 3245,1311C3181,1362 3012,1445 2935,1464C2853,1483 2756,1490 2690,1480z"/&gt;
     &lt;/g&gt;
    &lt;/g&gt;
   &lt;/g&gt;
  &lt;/g&gt;
 &lt;/g&gt;
 &lt;metadata&gt;image/svg+xmlOpenclipartmoustache2013-05-14T05:53:28One of those hipster moustaches that girls seem to like.https://openclipart.org/detail/178101/moustache-by-quirkymaui-178101quirkymauibeardfacial hairhairhipstermoustachetrendtrendy&lt;/metadata&gt;
&lt;/g&gt;</pencil:property></pencil:metadata>
            <g pencil:name="container" id="e1b214e42cce4d32a885e18f17db9456" transform="scale(1.894736842105263,1.8969072164948453)"><g>

 <g>
  <title>Layer 1</title>
  <g transform="translate(-1, 3) matrix(0.876438, 0, 0, 0.876438, 24.1235, 58.449)" id="imagebot_12">
   <path id="imagebot_6" transform="rotate(-85.1567, 47.503, -22.3336) matrix(0.108501, 0, 0, 0.108501, 33.8168, -36.0197)" d="M-280.008,532.286 L-280.008,75.3707 L-280.008,75.3707 C-280.008,-120.899 -120.899,-280.008 75.3708,-280.008 L75.3708,-280.008 L75.3708,-280.008 C169.623,-280.008 260.015,-242.566 326.661,-175.92 C393.308,-109.273 430.749,-18.8815 430.749,75.3708 L430.749,126.139 L532.286,126.139 L329.212,329.213 L126.139,126.139 L227.676,126.139 L227.676,75.3708 C227.676,-8.74498 159.486,-76.9343 75.3708,-76.9343 L75.3708,-76.9343 L75.3708,-76.9343 C-8.74504,-76.9343 -76.9343,-8.74498 -76.9343,75.3708 L-76.9343,532.286 L-280.008,532.286 z" stroke-linecap="round" stroke-linejoin="round" stroke-width="3" stroke="#000000" fill="#000000"/>
   <g transform="translate(0, -58)" id="imagebot_9">
    <path id="imagebot_5" transform="rotate(85.1567, 371.503, 33.6666) matrix(-0.108501, 0, 0, 0.108501, 385.189, 19.9804)" d="M-280.008,532.286 L-280.008,75.3707 L-280.008,75.3707 C-280.008,-120.899 -120.899,-280.008 75.3708,-280.008 L75.3708,-280.008 L75.3708,-280.008 C169.623,-280.008 260.015,-242.566 326.661,-175.92 C393.308,-109.273 430.749,-18.8815 430.749,75.3708 L430.749,126.139 L532.286,126.139 L329.212,329.213 L126.139,126.139 L227.676,126.139 L227.676,75.3708 C227.676,-8.74498 159.486,-76.9343 75.3708,-76.9343 L75.3708,-76.9343 L75.3708,-76.9343 C-8.74504,-76.9343 -76.9343,-8.74498 -76.9343,75.3708 L-76.9343,532.286 L-280.008,532.286 z" stroke-linecap="round" stroke-linejoin="round" stroke-width="3" stroke="#000000" fill="#000000"/>
    <g id="imagebot_8">
     <g transform="translate(9, 13) matrix(1, 0, 0, 1, -30, -66.5469)" id="imagebot_1">
      <path id="imagebot_2" transform="matrix(0.1, 0, 0, -0.1, 0, 203)" d="M2690,1480C2569,1461 2460,1400 2366,1299L2311,1239L2257,1293C2186,1366 2092,1426 2005,1453C1906,1484 1754,1484 1650,1451C1550,1421 1420,1351 1336,1284C1109,1102 888,1003 734,1013C691,1016 647,1026 623,1039C577,1062 514,1122 505,1151C495,1183 508,1235 531,1256C559,1281 632,1279 695,1251C753,1225 772,1225 793,1248C823,1281 814,1310 757,1366C604,1513 417,1480 266,1279C221,1219 220,1217 220,1140C220,1046 246,955 292,885C410,707 649,575 929,533C1090,509 1457,509 1587,533C1783,570 1949,632 2075,715C2135,755 2252,869 2278,912C2287,927 2300,940 2307,940C2313,940 2339,913 2364,881C2559,628 2942,496 3425,513C3823,528 4050,604 4238,784C4344,886 4400,1008 4400,1141C4400,1196 4395,1213 4371,1251C4331,1314 4229,1407 4173,1433C4069,1480 3947,1453 3851,1362C3817,1330 3810,1316 3810,1286C3810,1230 3841,1220 3920,1250C3995,1278 4063,1282 4085,1259C4110,1235 4119,1178 4105,1144C4085,1096 4017,1043 3953,1024C3853,995 3717,1021 3564,1098C3498,1131 3327,1245 3245,1311C3181,1362 3012,1445 2935,1464C2853,1483 2756,1490 2690,1480z"/>
     </g>
    </g>
   </g>
  </g>
 </g>
 <metadata>image/svg+xmlOpenclipartmoustache2013-05-14T05:53:28One of those hipster moustaches that girls seem to like.https://openclipart.org/detail/178101/moustache-by-quirkymaui-178101quirkymauibeardfacial hairhairhipstermoustachetrendtrendy</metadata>
</g></g>
        </g></g></g></svg>