<?xml version="1.0" encoding="UTF-8" standalone="no"?>
<svg
   xmlns:pencil="http://www.evolus.vn/Namespace/Pencil"
   xmlns:osb="http://www.openswatchbook.org/uri/2009/osb"
   xmlns:dc="http://purl.org/dc/elements/1.1/"
   xmlns:cc="http://creativecommons.org/ns#"
   xmlns:rdf="http://www.w3.org/1999/02/22-rdf-syntax-ns#"
   xmlns:svg="http://www.w3.org/2000/svg"
   xmlns="http://www.w3.org/2000/svg"
   xmlns:sodipodi="http://sodipodi.sourceforge.net/DTD/sodipodi-0.dtd"
   xmlns:inkscape="http://www.inkscape.org/namespaces/inkscape"
   width="700.140625"
   height="186.45703125"
   id="exportedSVG"
   version="1.1"
   pencil:version="1.2.2"
   sodipodi:docname="logo_bark.svg"
   inkscape:version="0.92.1 r">
  <metadata
     id="metadata29">
    <rdf:RDF>
      <cc:Work
         rdf:about="">
        <dc:format>image/svg+xml</dc:format>
        <dc:type
           rdf:resource="http://purl.org/dc/dcmitype/StillImage" />
        <dc:title></dc:title>
      </cc:Work>
    </rdf:RDF>
  </metadata>
  <defs
     id="defs27">
    <linearGradient
       id="linearGradient4732"
       osb:paint="solid">
      <stop
         style="stop-color:#000000;stop-opacity:1;"
         offset="0"
         id="stop4730" />
    </linearGradient>
    <filter
       inkscape:label="Bark"
       inkscape:menu="Textures"
       inkscape:menu-tooltip="Bark texture, vertical; use with deep colors"
       style="color-interpolation-filters:sRGB;"
       id="filter6508">
      <feTurbulence
         seed="10"
         baseFrequency="0.12 0.02"
         numOctaves="10"
         type="fractalNoise"
         id="feTurbulence6486" />
      <feColorMatrix
         values="1 0 0 0 0 0 1 0 0 0 0 0 1 0 0 0 0 0 0.7 0 "
         result="result5"
         id="feColorMatrix6488" />
      <feComposite
         in2="result5"
         operator="out"
         in="SourceGraphic"
         id="feComposite6490" />
      <feMorphology
         result="result3"
         radius="1.3"
         operator="dilate"
         id="feMorphology6492" />
      <feTurbulence
         seed="25"
         type="turbulence"
         baseFrequency="0.08 0.05"
         numOctaves="8"
         result="result91"
         id="feTurbulence6494" />
      <feDisplacementMap
         result="result4"
         scale="5"
         yChannelSelector="G"
         xChannelSelector="R"
         in="result3"
         in2="result91"
         id="feDisplacementMap6496" />
      <feSpecularLighting
         specularExponent="35"
         specularConstant="1"
         surfaceScale="2"
         lighting-color="rgb(255,255,255)"
         result="result1"
         in="result4"
         id="feSpecularLighting6500">
        <feDistantLight
           azimuth="235"
           elevation="75"
           id="feDistantLight6498" />
      </feSpecularLighting>
      <feComposite
         operator="in"
         result="result2"
         in="result1"
         in2="result4"
         id="feComposite6502" />
      <feComposite
         k3="1"
         k2="1"
         operator="arithmetic"
         result="result4"
         in="result4"
         in2="result2"
         id="feComposite6504" />
      <feBlend
         mode="multiply"
         in2="result4"
         id="feBlend6506" />
    </filter>
  </defs>
  <sodipodi:namedview
     pagecolor="#7a504d"
     bordercolor="#666666"
     borderopacity="1"
     objecttolerance="10"
     gridtolerance="10"
     guidetolerance="10"
     inkscape:pageopacity="0"
     inkscape:pageshadow="2"
     inkscape:window-width="3440"
     inkscape:window-height="1366"
     id="namedview25"
     showgrid="false"
     inkscape:zoom="2.56"
     inkscape:cx="342.94061"
     inkscape:cy="64.888172"
     inkscape:window-x="0"
     inkscape:window-y="0"
     inkscape:window-maximized="1"
     inkscape:current-layer="layer_untitled_page">
    <inkscape:grid
       type="xygrid"
       id="grid4567" />
  </sodipodi:namedview>
  <g
     inkscape:label="Untitled Page"
     inkscape:groupmode="layer"
     id="layer_untitled_page">
    <rect
       style="fill:none;stroke:none;stroke-width:2;stroke-linejoin:round;stroke-miterlimit:4;stroke-dasharray:none;stroke-opacity:1"
       id="rect2"
       height="700.14062"
       width="700.14062"
       y="0"
       x="0.39873889" />
    <g
       style="fill:#000000;fill-opacity:1;stroke:#ffffff;stroke-width:1.20368075;stroke-linecap:butt;stroke-linejoin:round;stroke-miterlimit:4;stroke-dasharray:none;stroke-opacity:1;paint-order:stroke markers fill"
       id="imagebot_8"
       transform="matrix(1.6488156,0,0,1.6375846,3.8211425,22.269461)">
      <g
         style="fill:#000000;fill-opacity:1;stroke:#ffffff;stroke-width:1.20368075;stroke-linecap:butt;stroke-linejoin:round;stroke-miterlimit:4;stroke-dasharray:none;stroke-opacity:1;paint-order:stroke markers fill"
         id="imagebot_1"
         transform="translate(-21,-53.5469)">
        <path
           style="fill:#000000;fill-opacity:1;stroke:#ffffff;stroke-width:1.97800001;stroke-linecap:butt;stroke-linejoin:round;stroke-miterlimit:4;stroke-dasharray:none;stroke-opacity:1;paint-order:stroke markers fill;filter:url(#filter6508)"
           d="M 88.439453,8.7695312 86.90625,26.746094 77.855469,25.984375 C 71.464503,25.446535 65.092986,25.88345 58.939453,27.216797 46.419833,28.851651 30.477066,38.267273 9.9671533,56.953125 c -7.41967,9.825508 -8.4804686,11.09763 -8.4804686,23.707031 0,15.393295 8.2705603,29.962694 15.8551123,41.425784 19.456024,29.149 58.862464,50.76472 105.029293,57.64258 26.54593,3.9302 87.05759,3.9302 108.49219,0 32.31679,-6.05907 59.68782,-16.21274 80.46289,-29.80469 9.8929,-6.55034 29.18377,-25.21815 33.47071,-32.25977 1.48393,-2.45637 3.62707,-4.58594 4.78124,-4.58594 0.9893,0 5.2764,4.42184 9.39844,9.66211 32.15191,41.43089 95.30166,63.04757 174.93946,60.26368 65.62286,-2.45638 103.05109,-14.90239 134.04882,-44.37891 17.47745,-16.70336 28.21485,-34.48184 28.21485,-56.261719 0,-9.006715 -1.50131,-18.133273 -5.45847,-24.356094 -15.30517,-22.256626 -23.27501,-21.403764 -32.50838,-25.661484 -3.76706,-1.690829 -5.68662,-1.798419 -11.65429,-3.333984 -5.96767,-1.535565 -17.30045,-3.503884 -25.748,-2.792969 l -9.05078,0.761719 -1.53321,-17.9765628 -33.13281,38.9999998 39.26758,32.90625 -1.53321,-17.976562 9.04883,-0.761719 c 9.17374,-0.772027 16.1456,-0.521784 21.65075,5.983443 2.15329,1.886483 1.84759,7.626146 0.50746,11.516557 -3.29763,7.860406 -14.51008,16.53898 -25.0625,19.650391 -16.48816,4.748994 -38.9118,0.492214 -64.13868,-12.117188 -10.88218,-5.404029 -39.07736,-24.072801 -52.59765,-34.880859 -10.55242,-8.351682 -38.4174,-21.943277 -51.11328,-25.054688 -13.52029,-3.11141 -29.5143,-4.258678 -40.39649,-2.621093 -19.95067,3.111409 -37.92105,13.101021 -53.41992,29.640624 l -9.07031,9.826172 -8.90235,-8.84375 C 329.62739,43.317117 314.1279,33.491791 299.7832,29.070312 283.45993,23.993801 258.39768,23.994408 241.25,29.398438 224.76184,34.31119 203.32857,45.774277 189.47852,56.746094 152.0504,86.550133 115.61051,102.76258 90.21875,101.125 83.128843,100.63372 75.875126,98.996046 71.917969,96.867188 64.333417,93.100743 53.944872,83.274386 52.460938,78.525391 c -1.141571,-3.628143 -0.16936,-6.907896 1.794921,-9.72461 5.401084,-4.830137 12.719794,-7.520828 20.533203,-6.863281 l 9.048829,0.761719 -1.533203,17.976562 39.267582,-32.90625 z"
           id="imagebot_2"
           inkscape:connector-curvature="0"
           sodipodi:nodetypes="cccccscccccscccscccccccccccccccccccccccccccccccc"
           transform="matrix(0.60649596,0,0,0.61065547,18.682493,39.947932)" />
      </g>
    </g>
  </g>
</svg>
