<?xml version="1.0" standalone="no"?>
<!DOCTYPE svg PUBLIC "-//W3C//DTD SVG 20010904//EN"
 "http://www.w3.org/TR/2001/REC-SVG-20010904/DTD/svg10.dtd">
<svg version="1.0" xmlns="http://www.w3.org/2000/svg"
 width="2928.000000pt" height="2928.000000pt" viewBox="0 0 2928.000000 2928.000000"
 preserveAspectRatio="xMidYMid meet">
<metadata>
Created by potrace 1.11, written by Peter Selinger 2001-2013
</metadata>
<g transform="translate(0.000000,2928.000000) scale(0.100000,-0.100000)"
fill="#000000" stroke="none">
<path d="M25668 18415 c-13 -15 -28 -33 -33 -39 -6 -6 -60 -69 -120 -141 -59
-71 -122 -146 -139 -166 -53 -61 -79 -92 -140 -164 -78 -93 -130 -155 -156
-185 -12 -14 -34 -40 -48 -59 -15 -18 -36 -43 -47 -55 -29 -33 -63 -73 -120
-141 -27 -33 -54 -65 -60 -71 -5 -6 -26 -31 -47 -55 -20 -24 -45 -54 -56 -67
-11 -13 -35 -41 -52 -62 -17 -21 -39 -48 -48 -58 -10 -11 -35 -41 -57 -67 -22
-26 -48 -57 -58 -69 -66 -77 -102 -120 -155 -185 l-60 -73 91 -76 c51 -42 94
-79 97 -82 6 -6 59 -51 125 -105 27 -22 53 -44 59 -50 6 -5 38 -32 71 -59 33
-28 68 -57 77 -65 19 -18 14 -14 157 -133 58 -49 120 -101 137 -116 29 -26
103 -87 148 -124 60 -50 113 -96 138 -120 15 -14 28 -25 28 -22 0 4 28 -18 74
-61 18 -16 55 -48 81 -70 27 -22 68 -56 90 -75 23 -19 61 -51 84 -70 23 -19
55 -46 71 -60 15 -14 47 -41 70 -59 23 -19 48 -41 56 -48 26 -27 43 -16 38 25
-6 55 -22 228 -30 337 -2 33 -7 87 -10 120 -3 33 -7 81 -9 106 l-4 46 142 46
c167 55 338 96 412 100 11 0 45 -3 75 -8 30 -5 60 -10 65 -11 80 -9 287 -93
368 -148 21 -14 42 -26 47 -26 6 0 10 -3 10 -7 0 -5 17 -19 37 -33 21 -14 66
-53 101 -87 62 -60 64 -63 77 -140 17 -97 12 -330 -8 -349 -4 -4 -7 -15 -7
-23 0 -28 -67 -158 -117 -229 -48 -68 -244 -270 -298 -307 -16 -11 -40 -30
-54 -41 -61 -50 -225 -151 -333 -205 -65 -32 -118 -55 -118 -52 0 3 -6 1 -12
-5 -24 -19 -242 -82 -338 -98 -14 -2 -34 -6 -45 -9 -24 -5 -119 -16 -190 -21
-62 -5 -314 -5 -375 0 -91 7 -187 17 -245 26 -33 5 -78 12 -100 15 -22 3 -51
7 -65 10 -14 4 -36 8 -50 11 -14 3 -45 10 -70 15 -25 6 -56 13 -70 15 -30 5
-123 31 -165 45 -16 6 -37 12 -45 13 -28 4 -75 19 -205 62 -195 64 -304 106
-447 168 -20 9 -39 16 -42 16 -3 0 -41 16 -84 36 -42 20 -102 48 -132 62 -89
41 -222 107 -260 129 -60 34 -85 47 -90 48 -9 1 -105 58 -122 73 -10 8 -18 11
-18 7 0 -4 -8 -1 -17 7 -20 17 -171 108 -179 108 -3 0 -14 9 -26 20 -12 11
-28 20 -35 20 -7 0 -13 5 -13 10 0 6 -4 10 -9 10 -20 0 -798 511 -813 534 -4
6 -8 8 -8 4 0 -4 -8 -1 -17 7 -10 8 -56 41 -103 74 -47 33 -90 65 -97 70 -7 6
-16 11 -22 11 -5 0 -11 3 -13 8 -1 4 -38 32 -82 62 -43 30 -86 63 -94 73 -9 9
-20 17 -24 17 -7 0 -159 111 -184 135 -6 5 -22 17 -34 25 -12 8 -30 22 -40 30
-10 8 -31 24 -46 35 -16 11 -36 28 -46 38 -10 9 -22 17 -27 17 -5 0 -11 4 -13
8 -9 21 -334 242 -357 242 -6 0 -11 4 -11 8 0 5 -18 17 -40 27 -22 10 -40 21
-40 25 0 4 -8 10 -17 13 -10 3 -47 22 -83 43 -133 75 -187 105 -280 151 -52
27 -97 50 -100 53 -13 14 -433 212 -560 265 -36 15 -69 31 -75 36 -5 5 -15 9
-22 9 -7 0 -36 11 -65 23 -29 13 -79 34 -110 45 -32 12 -83 31 -113 43 -30 12
-57 21 -59 20 -3 0 -26 8 -51 19 -25 11 -45 17 -45 15 0 -2 -15 2 -32 10 -28
11 -181 48 -290 70 -16 3 -38 7 -50 10 -13 2 -39 6 -58 9 -19 2 -48 7 -65 10
-48 10 -87 15 -140 21 -27 3 -61 8 -75 11 -29 5 -81 11 -160 18 -30 3 -80 8
-110 11 -62 5 -318 18 -337 16 -19 -2 -63 -2 -103 0 -19 0 -37 0 -40 -1 -3 -1
-50 -3 -105 -5 -55 -1 -129 -6 -165 -10 -36 -4 -76 -8 -90 -10 -34 -4 -100
-14 -130 -21 -14 -2 -37 -6 -52 -9 -15 -2 -35 -6 -45 -9 -10 -3 -30 -7 -45
-10 -15 -2 -62 -14 -105 -26 -43 -12 -85 -23 -93 -25 -51 -12 -222 -70 -322
-109 -64 -25 -121 -46 -127 -46 -6 0 -11 -4 -11 -10 0 -5 -7 -10 -14 -10 -26
0 -382 -187 -476 -250 -8 -6 -51 -34 -95 -62 -44 -29 -84 -56 -90 -60 -19 -15
-122 -93 -150 -113 -15 -11 -32 -25 -39 -30 -6 -6 -36 -30 -66 -55 -98 -80
-145 -122 -289 -263 -63 -61 -141 -140 -175 -176 -33 -37 -103 -113 -155 -170
-53 -57 -117 -127 -143 -155 -26 -28 -48 -54 -48 -57 0 -4 -7 -10 -16 -13 -10
-4 -30 6 -55 29 -22 19 -36 35 -33 35 3 0 -15 17 -40 38 -24 20 -45 43 -45 50
-1 6 -5 12 -9 12 -11 0 -152 141 -152 152 0 4 -3 8 -7 8 -5 0 -60 51 -123 113
-64 61 -142 135 -174 162 -31 28 -67 59 -80 70 -12 11 -39 34 -60 50 -22 17
-45 36 -52 43 -7 6 -17 12 -22 12 -6 0 -12 4 -14 9 -8 20 -369 274 -431 302
-15 7 -27 16 -27 21 0 4 -5 8 -11 8 -7 0 -39 17 -73 38 -34 20 -84 48 -111 62
-28 14 -53 29 -56 33 -3 5 -10 9 -15 10 -5 0 -60 24 -122 54 -63 29 -116 53
-118 53 -3 0 -30 11 -60 25 -58 27 -312 113 -354 121 -14 3 -40 9 -58 15 -18
6 -43 13 -55 15 -12 2 -44 8 -72 15 -27 6 -61 12 -75 14 -14 2 -25 4 -25 5 0
1 -9 3 -20 5 -11 1 -37 6 -57 9 -82 13 -262 35 -288 34 -8 0 -28 2 -45 6 -16
3 -106 8 -200 12 -93 3 -189 7 -213 7 -23 1 -42 -1 -42 -5 0 -4 -11 -3 -24 2
-13 5 -26 7 -28 4 -3 -2 -72 -7 -154 -10 -182 -7 -196 -8 -211 -17 -6 -4 -14
-3 -18 3 -4 6 -10 8 -15 5 -9 -6 -36 -9 -215 -31 -27 -3 -60 -7 -72 -10 -36
-7 -76 -14 -108 -19 -29 -5 -46 -8 -97 -20 -13 -3 -34 -7 -48 -10 -14 -3 -40
-9 -58 -14 -18 -5 -35 -10 -37 -10 -3 -1 -6 -1 -7 -2 -2 0 -10 -2 -18 -4 -53
-11 -367 -111 -430 -138 -14 -6 -27 -11 -30 -12 -3 -1 -14 -5 -25 -9 -40 -16
-50 -19 -55 -21 -5 -2 -49 -20 -90 -38 -14 -6 -27 -11 -30 -12 -11 -4 -58 -25
-135 -60 -44 -20 -100 -46 -125 -57 -57 -26 -334 -165 -380 -191 -19 -11 -60
-34 -90 -50 -30 -16 -67 -38 -83 -49 -15 -11 -27 -16 -27 -13 0 3 -12 -2 -28
-12 -15 -10 -36 -23 -47 -30 -11 -6 -78 -48 -150 -93 -71 -44 -139 -86 -150
-93 -11 -7 -22 -14 -25 -17 -3 -3 -39 -28 -80 -55 -41 -27 -81 -55 -88 -62 -7
-7 -17 -13 -22 -13 -4 0 -26 -15 -48 -32 -23 -18 -60 -46 -83 -63 -36 -26
-129 -98 -179 -138 -8 -7 -44 -34 -80 -62 -36 -27 -67 -52 -70 -55 -3 -3 -41
-33 -85 -65 -44 -33 -82 -62 -85 -65 -3 -3 -25 -19 -50 -35 -25 -17 -49 -35
-55 -41 -5 -6 -32 -26 -60 -44 -27 -19 -52 -36 -55 -39 -3 -4 -23 -18 -45 -33
-22 -14 -71 -49 -110 -77 -38 -28 -77 -54 -85 -58 -8 -4 -17 -9 -20 -12 -12
-14 -70 -51 -80 -51 -5 0 -10 -4 -10 -8 0 -5 -11 -14 -25 -20 -14 -7 -31 -17
-38 -22 -7 -6 -50 -35 -97 -65 -47 -30 -94 -61 -105 -69 -10 -9 -23 -16 -28
-16 -5 0 -36 -18 -68 -40 -33 -22 -59 -37 -59 -33 0 5 -4 3 -8 -3 -6 -9 -178
-114 -187 -114 -2 0 -38 -20 -79 -45 -109 -64 -466 -246 -466 -237 0 4 -4 2
-8 -4 -4 -5 -23 -17 -42 -26 -168 -77 -278 -127 -285 -128 -3 0 -26 -10 -52
-21 -116 -50 -483 -182 -483 -174 0 2 -20 -4 -45 -15 -25 -11 -47 -20 -50 -20
-3 0 -7 -1 -10 -1 -3 -1 -8 -2 -12 -3 -57 -13 -164 -40 -183 -47 -14 -4 -36
-11 -50 -13 -14 -3 -36 -8 -50 -11 -14 -3 -41 -8 -60 -11 -19 -3 -38 -8 -41
-9 -3 -2 -28 -7 -55 -11 -27 -3 -58 -8 -69 -11 -36 -8 -124 -18 -250 -29 -87
-7 -313 -8 -385 -1 -118 12 -177 18 -200 22 -14 3 -38 7 -55 10 -16 3 -41 7
-55 10 -63 13 -86 17 -97 18 -7 0 -13 4 -13 9 0 5 -3 7 -8 4 -4 -2 -30 2 -57
9 -171 47 -309 111 -442 207 -29 21 -55 38 -58 38 -4 0 -12 6 -19 13 -7 6 -31
26 -52 42 -129 100 -273 238 -364 346 -65 77 -145 189 -135 189 3 0 0 10 -7
23 -6 12 -13 27 -14 32 -2 6 -6 21 -9 35 -8 32 -13 186 -7 234 5 39 66 111
152 176 25 19 50 39 56 45 6 5 28 19 50 30 21 11 41 23 44 26 14 18 217 99
288 114 12 3 32 7 45 10 114 25 317 25 549 -1 35 -3 80 -7 100 -6 41 0 48 -9
43 -59 -6 -60 -17 -193 -20 -244 -2 -27 -7 -77 -10 -110 -4 -33 -8 -78 -10
-100 -8 -125 -17 -231 -20 -235 -2 -3 0 -12 4 -19 6 -10 14 -7 34 11 13 13 44
39 67 58 24 19 53 44 65 55 13 11 40 34 61 50 21 17 42 35 48 40 6 6 52 44
101 85 50 41 92 77 95 80 3 4 34 30 70 59 36 30 67 57 70 60 3 3 25 23 50 43
25 20 59 48 75 62 17 15 46 39 65 56 19 16 67 55 105 88 39 32 81 67 94 78 13
10 38 33 57 49 18 17 46 40 62 52 16 12 40 33 54 45 13 13 47 41 73 63 27 22
56 47 65 55 9 8 36 31 60 51 25 20 55 46 68 57 13 11 41 35 64 54 23 18 57 48
77 65 20 18 51 43 68 55 18 13 33 28 33 35 0 12 -56 85 -124 163 -17 20 -51
60 -76 90 -25 29 -49 58 -55 64 -12 13 -57 67 -107 127 -20 24 -46 55 -58 69
-12 14 -36 42 -53 63 -18 21 -41 49 -52 62 -11 13 -33 40 -50 60 -16 19 -39
46 -50 58 -20 23 -217 256 -245 291 -8 10 -19 23 -25 30 -5 6 -35 40 -65 76
-30 36 -57 67 -60 70 -3 3 -39 46 -80 95 -41 50 -90 108 -110 130 -19 23 -51
61 -72 85 -84 103 -129 152 -134 147 -9 -8 -13 -48 -29 -252 -3 -38 -8 -97
-12 -130 -3 -33 -7 -76 -8 -95 -8 -117 -18 -235 -20 -249 -2 -9 -4 -21 -4 -28
-1 -6 -13 -10 -29 -8 -15 2 -70 6 -122 10 -52 4 -111 9 -130 11 -238 25 -539
19 -740 -16 -36 -6 -78 -13 -94 -15 -15 -2 -36 -7 -46 -10 -10 -3 -27 -7 -37
-9 -75 -15 -200 -50 -210 -58 -7 -6 -13 -8 -13 -4 0 3 -24 -4 -52 -15 -64 -26
-120 -43 -130 -41 -5 1 -8 -2 -8 -7 0 -5 -14 -13 -32 -16 -18 -4 -39 -11 -48
-16 -15 -9 -73 -31 -77 -30 -3 1 -121 -53 -203 -93 -30 -14 -73 -37 -95 -51
-22 -13 -58 -34 -80 -46 -22 -12 -42 -25 -45 -28 -3 -4 -26 -20 -52 -36 -27
-17 -48 -33 -48 -37 0 -5 -5 -8 -11 -8 -9 0 -135 -96 -219 -166 -30 -25 -326
-320 -360 -359 -20 -22 -55 -65 -80 -95 -25 -30 -47 -57 -50 -60 -4 -3 -49
-61 -101 -130 -52 -69 -96 -127 -99 -130 -13 -13 -110 -161 -139 -212 -33 -59
-63 -150 -77 -235 -11 -66 -10 -628 1 -733 5 -47 9 -100 9 -117 1 -18 3 -33 6
-33 3 0 7 -15 8 -32 1 -18 7 -55 12 -83 5 -27 12 -61 14 -75 12 -64 25 -126
30 -140 3 -8 8 -26 10 -40 3 -14 12 -50 21 -80 9 -30 18 -63 20 -72 10 -44 78
-237 95 -271 11 -22 20 -43 20 -48 0 -15 108 -238 153 -314 22 -38 40 -72 38
-74 -1 -2 1 -7 6 -10 5 -3 36 -46 68 -95 129 -194 290 -391 465 -568 47 -49
84 -88 82 -88 -2 0 11 -12 28 -26 17 -15 46 -41 64 -58 68 -65 174 -158 263
-231 7 -5 19 -15 27 -22 7 -6 17 -9 20 -6 3 4 6 2 6 -4 0 -10 200 -164 305
-233 28 -19 52 -36 55 -39 3 -3 17 -12 32 -20 15 -8 36 -21 46 -30 17 -15 44
-33 87 -55 11 -6 34 -21 52 -33 17 -13 35 -23 40 -23 5 0 18 -8 29 -18 10 -9
38 -26 61 -37 24 -11 43 -23 43 -26 0 -3 16 -11 35 -19 19 -8 35 -18 35 -24 0
-5 3 -7 6 -3 4 3 23 -5 43 -18 19 -14 41 -25 47 -25 7 0 14 -3 16 -7 3 -7 174
-97 187 -99 4 0 49 -21 101 -46 161 -77 439 -198 456 -198 3 0 22 -7 42 -16
62 -27 97 -40 112 -42 3 0 19 -6 35 -13 68 -26 222 -80 244 -85 13 -3 31 -9
40 -13 9 -5 18 -9 21 -9 3 0 39 -10 80 -23 41 -13 77 -24 80 -24 3 0 11 -4 18
-8 6 -5 12 -6 12 -3 0 3 18 -1 41 -9 23 -8 45 -12 50 -9 5 3 9 1 9 -4 0 -5 6
-9 13 -9 6 -1 48 -11 92 -23 44 -12 85 -23 90 -24 56 -12 173 -40 185 -44 8
-3 22 -6 30 -8 18 -3 83 -17 90 -19 16 -4 88 -18 105 -21 11 -1 31 -5 45 -8
35 -8 141 -28 165 -31 11 -2 34 -6 50 -9 26 -5 124 -20 275 -41 63 -9 95 -13
176 -20 39 -3 80 -7 91 -9 11 -3 59 -7 106 -10 47 -4 105 -9 129 -11 24 -3 81
-7 128 -10 47 -3 132 -8 190 -11 58 -4 144 -7 192 -8 49 -1 88 -3 88 -6 0 -3
44 -6 98 -7 53 -1 219 -5 367 -9 343 -10 1068 -9 1425 1 299 8 405 12 405 14
0 1 45 4 100 6 124 4 284 13 350 20 28 3 82 7 120 10 39 3 93 8 120 11 28 3
68 7 90 9 22 2 56 6 75 9 19 3 51 8 70 10 65 9 104 15 260 42 14 3 33 7 43 10
10 3 31 7 47 9 16 2 47 9 69 15 22 6 43 10 48 9 4 -1 15 1 23 4 23 9 212 50
238 51 12 1 22 4 22 7 0 3 6 6 13 7 6 0 26 4 42 7 17 4 37 8 45 10 8 2 15 4
15 5 0 2 22 7 60 15 17 3 37 8 45 11 8 3 24 8 35 10 11 2 76 20 145 39 69 20
133 37 144 40 10 2 44 12 75 21 31 10 58 18 61 19 3 0 14 4 25 7 11 4 81 25
155 48 74 23 144 45 155 50 11 5 49 19 85 31 36 12 137 48 225 81 88 34 166
61 173 61 6 0 12 4 12 9 0 4 9 8 20 8 11 0 20 4 20 8 0 5 6 9 13 9 6 0 28 7
47 15 19 9 64 28 100 43 82 35 157 69 240 108 36 17 71 32 78 33 8 1 22 10 31
18 10 9 23 16 29 16 6 0 27 9 47 20 61 34 135 70 141 69 4 0 10 3 13 8 3 5 17
14 31 20 14 7 61 33 105 58 44 25 88 48 98 52 9 3 17 9 17 13 0 4 11 11 25 14
14 4 25 11 25 16 0 6 5 10 10 10 23 0 360 221 368 242 2 4 10 8 17 8 8 0 18 6
22 13 4 6 26 25 48 42 22 16 42 32 45 36 3 3 34 30 70 60 36 29 70 58 76 64 7
5 40 35 74 65 190 167 602 574 704 695 33 39 63 71 68 73 4 2 8 8 8 13 0 5 12
22 28 37 31 32 58 66 136 179 78 113 144 180 186 188 13 3 35 -4 52 -17 64
-45 228 -223 353 -382 17 -22 35 -44 40 -50 6 -6 28 -33 50 -61 21 -27 44 -55
49 -60 6 -6 36 -39 66 -75 51 -61 254 -274 293 -309 10 -9 37 -34 60 -56 41
-40 201 -182 222 -198 5 -4 21 -17 35 -28 14 -12 41 -33 60 -48 19 -14 37 -28
40 -31 3 -3 30 -24 60 -48 30 -23 60 -45 65 -50 6 -4 48 -35 95 -67 47 -33 86
-63 88 -67 2 -5 9 -8 17 -8 7 0 18 -7 25 -15 6 -8 41 -31 76 -52 35 -20 64
-41 64 -45 0 -4 4 -8 10 -8 5 0 33 -15 63 -32 80 -50 88 -55 147 -90 70 -41
165 -93 210 -116 19 -9 38 -21 41 -25 3 -5 12 -9 20 -10 8 -2 41 -18 74 -36
33 -19 66 -34 73 -34 6 0 12 -4 12 -9 0 -4 5 -8 11 -8 7 0 41 -15 78 -34 36
-18 100 -48 141 -66 41 -18 93 -40 115 -50 157 -70 441 -178 655 -249 85 -28
175 -58 200 -66 25 -8 54 -17 65 -20 11 -2 67 -18 125 -35 84 -25 453 -121
520 -135 100 -22 160 -35 180 -39 14 -2 48 -9 75 -15 28 -6 62 -13 78 -16 15
-3 37 -7 50 -10 12 -2 33 -6 47 -9 14 -2 36 -7 50 -10 14 -3 41 -8 60 -11 19
-2 44 -6 55 -9 11 -2 42 -7 69 -10 27 -4 52 -9 55 -10 3 -2 31 -7 61 -10 30
-4 69 -9 85 -12 17 -3 44 -7 60 -9 37 -4 112 -15 145 -21 14 -2 50 -6 80 -9
30 -3 69 -7 85 -10 59 -9 128 -17 169 -20 22 -2 41 -4 41 -5 0 0 27 -3 60 -5
33 -2 83 -6 110 -9 28 -3 84 -8 125 -11 41 -3 104 -7 140 -10 126 -9 266 -17
341 -19 41 -2 81 -6 87 -10 7 -4 12 -3 12 2 0 5 21 6 48 2 51 -8 1040 -5 1187
3 50 3 142 8 205 11 285 15 337 18 375 21 22 2 76 6 120 10 183 14 213 16 270
22 33 3 79 6 102 7 24 0 43 3 43 6 0 3 12 5 28 6 40 1 181 14 222 21 19 3 51
7 70 8 19 2 35 4 35 5 0 1 16 4 35 6 106 11 127 13 146 18 11 2 45 7 75 11 30
3 68 8 84 11 17 2 44 6 60 9 17 2 44 6 60 9 46 9 97 18 130 23 17 2 53 8 81
14 28 5 64 12 80 14 16 3 40 8 54 11 40 9 63 14 99 20 18 3 41 7 50 9 9 2 86
20 171 40 85 20 165 38 177 41 12 2 34 9 48 14 14 5 25 7 25 4 0 -4 7 -1 15 6
8 7 15 10 15 7 0 -3 15 -1 33 4 17 6 39 12 47 14 8 2 17 4 20 6 3 1 10 3 15 4
6 1 17 5 25 8 8 3 42 14 75 23 33 9 87 25 120 36 33 11 65 21 70 23 6 1 17 5
25 8 8 3 40 13 70 23 30 9 60 19 65 23 6 3 15 6 20 7 15 3 210 78 303 117 45
19 82 32 82 29 0 -4 4 -2 8 4 4 5 32 20 62 33 84 36 467 228 480 241 3 3 30
18 60 34 30 16 62 34 70 41 8 6 56 35 105 65 50 30 92 56 95 59 3 3 39 28 80
55 83 54 339 242 355 260 6 6 28 24 50 41 21 16 46 36 55 45 9 8 33 29 54 45
21 17 56 47 77 68 22 20 41 37 43 37 13 0 313 296 391 386 28 31 64 72 80 90
40 44 57 66 123 154 31 41 59 77 62 80 4 3 15 20 25 38 11 17 23 32 27 32 4 0
8 5 8 11 0 6 11 25 24 42 33 45 147 233 171 284 11 24 23 43 28 43 4 0 7 4 7
10 0 5 16 42 35 82 50 103 98 217 139 331 37 103 104 334 113 389 9 61 11 73
13 73 4 0 20 91 25 139 2 22 7 62 11 90 4 28 9 65 11 81 9 64 10 523 1 580 -5
33 -11 78 -14 100 -3 22 -10 45 -15 51 -5 7 -9 16 -8 20 5 23 -56 156 -122
266 -54 88 -131 202 -150 218 -3 3 -12 14 -20 26 -23 34 -91 115 -135 161 -23
24 -40 43 -39 43 1 0 -47 51 -107 113 -61 61 -129 134 -151 162 -23 27 -53 63
-67 80 -42 50 -152 165 -205 214 -27 25 -59 55 -70 66 -59 56 -268 215 -283
215 -7 0 -12 4 -12 9 0 5 -9 13 -20 16 -11 3 -26 12 -32 19 -30 29 -392 216
-420 216 -8 0 -18 4 -24 9 -8 8 -205 77 -244 86 -8 2 -60 15 -115 29 -55 14
-116 27 -135 30 -19 3 -46 8 -60 11 -37 9 -77 14 -145 20 -33 3 -78 8 -100 11
-72 8 -480 3 -480 -6 0 -1 -10 -2 -165 -14 -47 -4 -102 -9 -122 -11 -33 -3
-38 -1 -39 18 -1 12 -3 36 -4 52 -2 17 -6 57 -9 90 -3 33 -8 85 -10 115 -6 67
-17 191 -21 245 -21 269 -19 263 -57 220z"/>
</g>
</svg>
